<svg width="24" height="24" viewBox="0 0 24 24" fill="none" xmlns="http://www.w3.org/2000/svg"><rect x="0.5" y="0.5" width="23" height="23" rx="3.5" fill="url(#paint0_linear_2737_79166)"></rect><rect x="0.5" y="0.5" width="23" height="23" rx="3.5" stroke="url(#paint1_radial_2737_79166)"></rect><path d="M14.054 4.70859L14.6133 4.78345L14.1207 8.45975L13.5615 8.38489L14.054 4.70859Z" fill="url(#paint2_linear_2737_79166)"></path><path d="M13.6508 4.40551C13.6318 4.54753 13.6553 4.69198 13.7182 4.8206C13.7812 4.94922 13.8808 5.05623 14.0044 5.12811C14.1281 5.19998 14.2703 5.23348 14.413 5.22438C14.5558 5.21528 14.6927 5.16399 14.8063 5.07699C14.92 4.98999 15.0054 4.87119 15.0518 4.7356C15.0981 4.60002 15.1033 4.45374 15.0666 4.31527C15.03 4.17679 14.9531 4.05234 14.8459 3.95765C14.7386 3.86295 14.6057 3.80227 14.4639 3.78327C14.2738 3.75794 14.0814 3.80924 13.929 3.92591C13.7765 4.04259 13.6765 4.21508 13.6508 4.40551Z" fill="url(#paint3_linear_2737_79166)"></path><path d="M10.426 8.35897L9.86914 8.4519L9.2628 4.79183L9.81969 4.69889L10.426 8.35897Z" fill="url(#paint4_linear_2737_79166)"></path><path d="M10.2137 4.38275C10.2372 4.52415 10.2182 4.66936 10.1593 4.80003C10.1004 4.93069 10.0041 5.04094 9.88264 5.11682C9.7612 5.19271 9.62004 5.23083 9.47702 5.22636C9.33401 5.22188 9.19555 5.17502 9.07917 5.0917C8.96278 5.00838 8.8737 4.89234 8.82318 4.75826C8.77266 4.62417 8.76297 4.47806 8.79534 4.33841C8.82771 4.19875 8.90069 4.07182 9.00504 3.97367C9.10939 3.87552 9.24043 3.81056 9.38158 3.787C9.47531 3.77131 9.57119 3.77428 9.66375 3.79574C9.7563 3.81719 9.84371 3.85671 9.92099 3.91204C9.99827 3.96737 10.0639 4.03741 10.1141 4.11818C10.1644 4.19895 10.1982 4.28885 10.2137 4.38275Z" fill="url(#paint5_linear_2737_79166)"></path><path d="M11.9281 18.91L12.0106 18.9078C17.8154 18.9278 19.1889 17.0577 19.1598 14.9332C19.1343 13.0891 18.3856 11.3337 17.0784 10.053C15.7713 8.77225 14.0126 8.07108 12.1892 8.10369L11.5365 8.11585C10.219 8.0969 9.74206 8.32784 8.91267 8.69223C8.08328 9.05662 7.33235 9.5824 6.70276 10.2396C6.07317 10.8967 5.57725 11.6724 5.24333 12.5222C4.90941 13.3721 4.74402 14.2794 4.75662 15.1926C4.78702 17.3167 7.08805 18.9953 11.9281 18.91Z" fill="url(#paint6_linear_2737_79166)"></path><path d="M6.54835 15.4099C6.44209 15.1912 6.39896 14.9517 6.42327 14.7158L6.42714 14.6784C6.60763 12.9331 8.00811 11.6101 9.75144 11.5223C10.338 11.493 10.9467 11.4764 11.5781 11.477C12.3833 11.4767 13.1552 11.5041 13.8917 11.5523C15.6325 11.6651 17.0783 13.0142 17.3301 14.7545L17.336 14.7928C17.3671 15.0072 17.3427 15.224 17.2649 15.4251C17.2641 15.4346 17.2624 15.4439 17.2599 15.453L17.2572 15.4678C17.0592 16.1397 15.6771 16.6484 13.968 16.675C13.2454 16.6866 12.487 16.69 11.6948 16.6817C11.0745 16.6763 10.476 16.6646 9.89901 16.6467C8.7153 16.6123 7.67574 16.351 7.07072 15.969C6.98708 15.9214 6.90952 15.8649 6.83963 15.8007C6.70936 15.6945 6.60917 15.5601 6.54835 15.4099Z" fill="url(#paint7_linear_2737_79166)"></path><path d="M15.3327 14.5001C15.3327 14.0398 14.9596 13.6667 14.4993 13.6667C14.0391 13.6667 13.666 14.0398 13.666 14.5001" stroke="white" stroke-width="0.5" stroke-linecap="round" stroke-linejoin="round"></path><path d="M10.3327 14.5001C10.3327 14.0398 9.95959 13.6667 9.49935 13.6667C9.03911 13.6667 8.66602 14.0398 8.66602 14.5001" stroke="white" stroke-width="0.5" stroke-linecap="round" stroke-linejoin="round"></path><defs><linearGradient id="paint0_linear_2737_79166" x1="0" y1="0" x2="22.5" y2="22.5" gradientUnits="userSpaceOnUse"><stop stop-color="#ECEBFF"></stop><stop offset="1" stop-color="#F8E5FF"></stop></linearGradient><radialGradient id="paint1_radial_2737_79166" cx="0" cy="0" r="1" gradientUnits="userSpaceOnUse" gradientTransform="translate(24.6818 12) rotate(180) scale(24.6818 134.957)"><stop stop-color="#EEAAFD"></stop><stop offset="0.295993" stop-color="#CF72FA"></stop><stop offset="0.659539" stop-color="#A165F9"></stop><stop offset="1" stop-color="#7A5AF8"></stop></radialGradient><linearGradient id="paint2_linear_2737_79166" x1="14.3337" y1="4.74602" x2="13.8416" y2="8.42239" gradientUnits="userSpaceOnUse"><stop stop-color="#8E78FF"></stop><stop offset="0.04" stop-color="#8E78FF"></stop><stop offset="1" stop-color="#E19FFF"></stop></linearGradient><linearGradient id="paint3_linear_2737_79166" x1="14.4881" y1="3.78693" x2="14.2471" y2="5.21579" gradientUnits="userSpaceOnUse"><stop stop-color="#A67EE7"></stop><stop offset="0.04" stop-color="#A87FE8"></stop><stop offset="1" stop-color="#D699FF"></stop></linearGradient><linearGradient id="paint4_linear_2737_79166" x1="9.49145" y1="4.65743" x2="10.1058" y2="8.7649" gradientUnits="userSpaceOnUse"><stop stop-color="#8E78FF"></stop><stop offset="0.04" stop-color="#8E78FF"></stop><stop offset="1" stop-color="#E49FFF"></stop></linearGradient><linearGradient id="paint5_linear_2737_79166" x1="9.62065" y1="3.78712" x2="9.37946" y2="5.21665" gradientUnits="userSpaceOnUse"><stop stop-color="#A27BE5"></stop><stop offset="0.04" stop-color="#A27BE5"></stop><stop offset="1" stop-color="#DC9CFF"></stop></linearGradient><linearGradient id="paint6_linear_2737_79166" x1="13.0904" y1="8.13802" x2="11.2433" y2="19.0859" gradientUnits="userSpaceOnUse"><stop stop-color="#8E78FF"></stop><stop offset="0.04" stop-color="#8E78FF"></stop><stop offset="1" stop-color="#ECA3FF"></stop></linearGradient><linearGradient id="paint7_linear_2737_79166" x1="2002.17" y1="971.936" x2="2002.94" y2="967.44" gradientUnits="userSpaceOnUse"><stop stop-color="#360D44"></stop><stop offset="1" stop-color="#3E2F75"></stop></linearGradient></defs></svg>